<svg width="28" height="28" viewBox="0 0 28 28" fill="none" xmlns="http://www.w3.org/2000/svg">
<mask id="path-1-outside-1_33_456" maskUnits="userSpaceOnUse" x="2.49934" y="1.5003" width="24" height="24" fill="black">
<rect fill="white" x="2.49934" y="1.5003" width="24" height="24"/>
<path fill-rule="evenodd" clip-rule="evenodd" d="M4.11424 7.08443C3.29444 6.26429 3.29431 4.93475 4.11424 4.1147C4.93429 3.29466 6.2638 3.29487 7.08397 4.1147L14 11.0307L20.916 4.1147C21.7362 3.29486 23.0657 3.29466 23.8857 4.1147C24.7057 4.93476 24.7055 6.26429 23.8857 7.08443L16.9697 14.0004L23.8857 20.9155C24.7057 21.7355 24.7055 23.065 23.8857 23.8852C23.0656 24.7053 21.7361 24.7053 20.916 23.8852L14 16.9702L7.08397 23.8852C6.26382 24.7053 4.93438 24.7053 4.11424 23.8852C3.29449 23.065 3.29426 21.7355 4.11424 20.9155L11.0293 14.0004L4.11424 7.08443Z"/>
</mask>
<path fill-rule="evenodd" clip-rule="evenodd" d="M4.11424 7.08443C3.29444 6.26429 3.29431 4.93475 4.11424 4.1147C4.93429 3.29466 6.2638 3.29487 7.08397 4.1147L14 11.0307L20.916 4.1147C21.7362 3.29486 23.0657 3.29466 23.8857 4.1147C24.7057 4.93476 24.7055 6.26429 23.8857 7.08443L16.9697 14.0004L23.8857 20.9155C24.7057 21.7355 24.7055 23.065 23.8857 23.8852C23.0656 24.7053 21.7361 24.7053 20.916 23.8852L14 16.9702L7.08397 23.8852C6.26382 24.7053 4.93438 24.7053 4.11424 23.8852C3.29449 23.065 3.29426 21.7355 4.11424 20.9155L11.0293 14.0004L4.11424 7.08443Z" fill="white"/>
<path d="M4.11424 7.08443L3.40699 7.79139L3.40709 7.79148L4.11424 7.08443ZM4.11424 4.1147L3.40714 3.40759L3.40708 3.40765L4.11424 4.1147ZM7.08397 4.1147L7.79108 3.40759L7.79093 3.40745L7.08397 4.1147ZM14 11.0307L13.2929 11.7378L14 12.4449L14.7071 11.7378L14 11.0307ZM20.916 4.1147L20.209 3.40745L20.2089 3.40759L20.916 4.1147ZM23.8857 4.1147L24.5929 3.40764L24.5928 3.40759L23.8857 4.1147ZM23.8857 7.08443L24.5928 7.79154L24.593 7.79139L23.8857 7.08443ZM16.9697 14.0004L16.2626 13.2933L15.5554 14.0005L16.2627 14.7076L16.9697 14.0004ZM23.8857 20.9155L24.5928 20.2084L24.5928 20.2083L23.8857 20.9155ZM23.8857 23.8852L24.5928 24.5923L24.593 24.5921L23.8857 23.8852ZM20.916 23.8852L21.6231 23.1781L21.6231 23.1781L20.916 23.8852ZM14 16.9702L14.707 16.263L14 15.5561L13.2929 16.263L14 16.9702ZM7.08397 23.8852L6.37691 23.1781L6.37688 23.1781L7.08397 23.8852ZM4.11424 23.8852L3.40696 24.5921L3.40714 24.5923L4.11424 23.8852ZM4.11424 20.9155L3.40714 20.2084L3.40712 20.2084L4.11424 20.9155ZM11.0293 14.0004L11.7364 14.7076L12.4434 14.0005L11.7364 13.2934L11.0293 14.0004ZM4.11424 7.08443L4.82149 6.37747C4.39193 5.94773 4.39202 5.2512 4.8214 4.82176L4.11424 4.1147L3.40708 3.40765C2.1966 4.6183 2.19695 6.58086 3.40699 7.79139L4.11424 7.08443ZM4.11424 4.1147L4.82135 4.82181C5.25072 4.39243 5.94718 4.39231 6.37701 4.82195L7.08397 4.1147L7.79093 3.40745C6.58041 2.19743 4.61785 2.19688 3.40714 3.40759L4.11424 4.1147ZM7.08397 4.1147L6.37686 4.82181L13.2929 11.7378L14 11.0307L14.7071 10.3236L7.79108 3.40759L7.08397 4.1147ZM14 11.0307L14.7071 11.7378L21.6231 4.82181L20.916 4.1147L20.2089 3.40759L13.2929 10.3236L14 11.0307ZM20.916 4.1147L21.623 4.82195C22.0528 4.3923 22.7492 4.39243 23.1786 4.82181L23.8857 4.1147L24.5928 3.40759C23.3821 2.19689 21.4196 2.19742 20.209 3.40745L20.916 4.1147ZM23.8857 4.1147L23.1786 4.82176C23.608 5.25121 23.608 5.94772 23.1785 6.37746L23.8857 7.08443L24.593 7.79139C25.803 6.58086 25.8034 4.6183 24.5929 3.40764L23.8857 4.1147ZM23.8857 7.08443L23.1786 6.37732L16.2626 13.2933L16.9697 14.0004L17.6768 14.7076L24.5928 7.79154L23.8857 7.08443ZM16.9697 14.0004L16.2627 14.7076L23.1787 21.6226L23.8857 20.9155L24.5928 20.2083L17.6768 13.2933L16.9697 14.0004ZM23.8857 20.9155L23.1786 21.6226C23.6079 22.0519 23.6081 22.7484 23.1784 23.1783L23.8857 23.8852L24.593 24.5921C25.8029 23.3816 25.8035 21.4191 24.5928 20.2084L23.8857 20.9155ZM23.8857 23.8852L23.1786 23.1781C22.749 23.6077 22.0527 23.6077 21.6231 23.1781L20.916 23.8852L20.2089 24.5923C21.4196 25.8029 23.3822 25.803 24.5928 24.5923L23.8857 23.8852ZM20.916 23.8852L21.6231 23.1781L14.707 16.263L14 16.9702L13.2929 17.6773L20.2089 24.5924L20.916 23.8852ZM14 16.9702L13.2929 16.263L6.37691 23.1781L7.08397 23.8852L7.79103 24.5924L14.707 17.6773L14 16.9702ZM7.08397 23.8852L6.37688 23.1781C5.94723 23.6077 5.25094 23.6077 4.82135 23.1781L4.11424 23.8852L3.40714 24.5923C4.61781 25.803 6.58041 25.8029 7.79106 24.5923L7.08397 23.8852ZM4.11424 23.8852L4.82153 23.1783C4.3919 22.7484 4.39205 22.0519 4.82137 21.6226L4.11424 20.9155L3.40712 20.2084C2.19647 21.4191 2.19709 23.3817 3.40696 24.5921L4.11424 23.8852ZM4.11424 20.9155L4.82135 21.6226L11.7364 14.7076L11.0293 14.0004L10.3222 13.2933L3.40714 20.2084L4.11424 20.9155ZM11.0293 14.0004L11.7364 13.2934L4.8214 6.37737L4.11424 7.08443L3.40709 7.79148L10.3221 14.7075L11.0293 14.0004Z" fill="url(#paint0_linear_33_456)" mask="url(#path-1-outside-1_33_456)"/>
<defs>
<linearGradient id="paint0_linear_33_456" x1="2.99963" y1="1.50006" x2="34.4996" y2="28.5013" gradientUnits="userSpaceOnUse">
<stop stop-color="#37D385"/>
<stop offset="0.942903"/>
</linearGradient>
</defs>
</svg>
