<svg width="28" height="28" viewBox="0 0 28 28" fill="none" xmlns="http://www.w3.org/2000/svg">
<path d="M13.0088 17.5596C13.9801 17.5596 14.8236 17.8529 15.5029 18.459C16.1941 19.0572 16.543 19.8401 16.543 20.7666C16.543 21.7353 16.2319 22.5494 15.5684 23.1436C14.9244 23.7367 14.0474 24 13.0088 24C11.9941 24 11.1261 23.7217 10.4551 23.1221C9.77835 22.5174 9.44825 21.7157 9.44824 20.7666C9.44824 19.8317 9.78091 19.0399 10.4551 18.4375L10.4609 18.4326C11.1456 17.84 12.0087 17.5596 13.0088 17.5596ZM14.4443 4C15.7941 4 16.9995 4.22188 18.0479 4.68066H18.0488C19.1109 5.12005 19.9565 5.75218 20.5605 6.58594C21.1881 7.4271 21.5 8.39977 21.5 9.48438C21.5 10.3445 21.3455 11.0966 21.0029 11.7109C20.6809 12.2884 20.2551 12.77 19.7285 13.1523L19.7295 13.1533C19.2473 13.5158 18.7268 13.821 18.1689 14.0684L18.1553 14.0742C17.6395 14.2853 17.1505 14.4947 16.6895 14.7051L16.6904 14.7061C16.2734 14.9041 15.9492 15.1192 15.7061 15.3447C15.5287 15.5092 15.4326 15.7201 15.4326 16.0234V17.0322H10.7812L10.666 16.6924C10.5358 16.306 10.4237 15.9272 10.3301 15.5566L10.3291 15.5508C10.2326 15.1498 10.1797 14.7786 10.1797 14.4424C10.1797 13.7106 10.3398 13.065 10.7041 12.5469L10.7061 12.543C11.0473 12.0664 11.462 11.675 11.9482 11.3721L12.2881 11.1572C12.6274 10.9522 12.9642 10.7768 13.2988 10.6328C13.7158 10.4434 14.054 10.2673 14.3174 10.1045L14.3281 10.0977H14.3291C14.4452 10.0301 14.5012 9.97474 14.5254 9.94238C14.5364 9.92762 14.5393 9.919 14.54 9.91699C14.5406 9.91553 14.541 9.91488 14.541 9.91309C14.541 9.88391 14.5349 9.87236 14.5225 9.85742C14.5025 9.83356 14.4478 9.78586 14.3193 9.73438C14.0527 9.6276 13.5949 9.55566 12.9004 9.55566C11.6992 9.5557 10.593 9.77602 9.57617 10.2119L8.94531 10.4824L8.88184 9.79883L8.50195 5.72559L8.47168 5.39355L8.76562 5.2373C9.55572 4.8179 10.4607 4.50901 11.4746 4.30469C12.4803 4.10203 13.4703 4.00003 14.4443 4Z" fill="white" stroke="url(#paint0_linear_33_371)"/>
<defs>
<linearGradient id="paint0_linear_33_371" x1="15.2844" y1="-6.80887" x2="15.2844" y2="31.1554" gradientUnits="userSpaceOnUse">
<stop/>
<stop offset="1" stop-color="#37D385"/>
</linearGradient>
</defs>
</svg>
