<svg width="28" height="28" viewBox="0 0 28 28" fill="none" xmlns="http://www.w3.org/2000/svg">
<path d="M23.4237 8.36035C27.6126 10.9536 27.6126 17.0464 23.4237 19.6396L15.7664 24.3809C14.856 24.9444 13.6808 24.2893 13.6805 23.2187L13.6805 4.78125C13.6808 3.71065 14.856 3.05565 15.7664 3.61914L23.4237 8.36035Z" fill="white" stroke="url(#paint0_linear_33_83)" stroke-width="1.47965"/>
<mask id="path-2-outside-1_33_83" maskUnits="userSpaceOnUse" x="0.939896" y="9.00043" width="11" height="11" fill="black">
<rect fill="white" x="0.939896" y="9.00043" width="11" height="11"/>
<path fill-rule="evenodd" clip-rule="evenodd" d="M8.75764 10.2412C9.07872 9.92016 9.59965 9.92016 9.92073 10.2412C10.2416 10.5623 10.2417 11.0823 9.92073 11.4033L7.21272 14.1104L9.92073 16.8184C10.2417 17.1394 10.2416 17.6594 9.92073 17.9805C9.59964 18.3016 9.07872 18.3016 8.75764 17.9805L6.05061 15.2735L3.34358 17.9805C3.0225 18.3016 2.50157 18.3016 2.18049 17.9805C1.85975 17.6594 1.85965 17.1394 2.18049 16.8184L4.88752 14.1104L2.18049 11.4033C1.85965 11.0824 1.85975 10.5623 2.18049 10.2412C2.50157 9.92016 3.0225 9.92016 3.34358 10.2412L6.05061 12.9483L8.75764 10.2412Z"/>
</mask>
<path fill-rule="evenodd" clip-rule="evenodd" d="M8.75764 10.2412C9.07872 9.92016 9.59965 9.92016 9.92073 10.2412C10.2416 10.5623 10.2417 11.0823 9.92073 11.4033L7.21272 14.1104L9.92073 16.8184C10.2417 17.1394 10.2416 17.6594 9.92073 17.9805C9.59964 18.3016 9.07872 18.3016 8.75764 17.9805L6.05061 15.2735L3.34358 17.9805C3.0225 18.3016 2.50157 18.3016 2.18049 17.9805C1.85975 17.6594 1.85965 17.1394 2.18049 16.8184L4.88752 14.1104L2.18049 11.4033C1.85965 11.0824 1.85975 10.5623 2.18049 10.2412C2.50157 9.92016 3.0225 9.92016 3.34358 10.2412L6.05061 12.9483L8.75764 10.2412Z" fill="white"/>
<path d="M8.75764 10.2412L9.46475 10.9483V10.9483L8.75764 10.2412ZM9.92073 10.2412L10.6281 9.53437L10.6278 9.53413L9.92073 10.2412ZM9.92073 11.4033L10.6277 12.1106L10.6279 12.1104L9.92073 11.4033ZM7.21272 14.1104L6.50574 13.4031L5.79838 14.1103L6.50561 14.8175L7.21272 14.1104ZM9.92073 16.8184L10.6279 16.1113L10.6278 16.1113L9.92073 16.8184ZM9.92073 17.9805L10.6278 18.6876L10.6281 18.6874L9.92073 17.9805ZM8.75764 17.9805L9.46475 17.2734L9.46475 17.2734L8.75764 17.9805ZM6.05061 15.2735L6.75772 14.5664L6.05061 13.8593L5.3435 14.5664L6.05061 15.2735ZM3.34358 17.9805L2.63647 17.2734L2.63647 17.2734L3.34358 17.9805ZM2.18049 17.9805L1.47304 18.6873L1.47339 18.6876L2.18049 17.9805ZM2.18049 16.8184L1.47326 16.1114L1.47322 16.1114L2.18049 16.8184ZM4.88752 14.1104L5.59476 14.8174L6.30161 14.1103L5.59463 13.4033L4.88752 14.1104ZM2.18049 11.4033L1.47322 12.1103L1.47339 12.1105L2.18049 11.4033ZM2.18049 10.2412L1.47339 9.53413L1.47304 9.53447L2.18049 10.2412ZM3.34358 10.2412L2.63647 10.9483L2.63647 10.9483L3.34358 10.2412ZM6.05061 12.9483L5.3435 13.6554L6.05061 14.3625L6.75772 13.6554L6.05061 12.9483ZM8.75764 10.2412L9.46475 10.9483C9.3953 11.0178 9.28306 11.0178 9.21362 10.9483L9.92073 10.2412L10.6278 9.53413C9.91623 8.82253 8.76214 8.82253 8.05053 9.53413L8.75764 10.2412ZM9.92073 10.2412L9.21338 10.9481C9.14421 10.8789 9.14391 10.766 9.21356 10.6963L9.92073 11.4033L10.6279 12.1104C11.3395 11.3987 11.339 10.2457 10.6281 9.53437L9.92073 10.2412ZM9.92073 11.4033L9.21375 10.6961L6.50574 13.4031L7.21272 14.1104L7.9197 14.8176L10.6277 12.1106L9.92073 11.4033ZM7.21272 14.1104L6.50561 14.8175L9.21362 17.5255L9.92073 16.8184L10.6278 16.1113L7.91983 13.4033L7.21272 14.1104ZM9.92073 16.8184L9.21356 17.5254C9.1439 17.4558 9.14422 17.3428 9.21338 17.2736L9.92073 17.9805L10.6281 18.6874C11.339 17.976 11.3395 16.823 10.6279 16.1113L9.92073 16.8184ZM9.92073 17.9805L9.21362 17.2734C9.28306 17.2039 9.3953 17.2039 9.46475 17.2734L8.75764 17.9805L8.05053 18.6876C8.76214 19.3992 9.91623 19.3992 10.6278 18.6876L9.92073 17.9805ZM8.75764 17.9805L9.46475 17.2734L6.75772 14.5664L6.05061 15.2735L5.3435 15.9806L8.05053 18.6876L8.75764 17.9805ZM6.05061 15.2735L5.3435 14.5664L2.63647 17.2734L3.34358 17.9805L4.05068 18.6876L6.75772 15.9806L6.05061 15.2735ZM3.34358 17.9805L2.63647 17.2734C2.70591 17.2039 2.81816 17.2039 2.8876 17.2734L2.18049 17.9805L1.47339 18.6876C2.18499 19.3992 3.33908 19.3992 4.05069 18.6876L3.34358 17.9805ZM2.18049 17.9805L2.88794 17.2737C2.95708 17.3429 2.9574 17.4557 2.88776 17.5253L2.18049 16.8184L1.47322 16.1114C0.761889 16.8231 0.762412 17.9759 1.47304 18.6873L2.18049 17.9805ZM2.18049 16.8184L2.88773 17.5254L5.59476 14.8174L4.88752 14.1104L4.18029 13.4034L1.47326 16.1114L2.18049 16.8184ZM4.88752 14.1104L5.59463 13.4033L2.8876 10.6962L2.18049 11.4033L1.47339 12.1105L4.18042 14.8175L4.88752 14.1104ZM2.18049 11.4033L2.88777 10.6964C2.95739 10.7661 2.95709 10.8788 2.88794 10.948L2.18049 10.2412L1.47304 9.53447C0.762398 10.2458 0.761904 11.3986 1.47322 12.1103L2.18049 11.4033ZM2.18049 10.2412L2.8876 10.9483C2.81816 11.0178 2.70591 11.0178 2.63647 10.9483L3.34358 10.2412L4.05069 9.53413C3.33908 8.82253 2.18499 8.82253 1.47339 9.53413L2.18049 10.2412ZM3.34358 10.2412L2.63647 10.9483L5.3435 13.6554L6.05061 12.9483L6.75772 12.2412L4.05068 9.53413L3.34358 10.2412ZM6.05061 12.9483L6.75772 13.6554L9.46475 10.9483L8.75764 10.2412L8.05053 9.53413L5.3435 12.2412L6.05061 12.9483Z" fill="url(#paint1_linear_33_83)" mask="url(#path-2-outside-1_33_83)"/>
<defs>
<linearGradient id="paint0_linear_33_83" x1="34" y1="-1" x2="18.8135" y2="29.8592" gradientUnits="userSpaceOnUse">
<stop/>
<stop offset="1" stop-color="#37D385"/>
</linearGradient>
<linearGradient id="paint1_linear_33_83" x1="14" y1="2.5" x2="0.707714" y2="19.0444" gradientUnits="userSpaceOnUse">
<stop offset="0.0570974"/>
<stop offset="1" stop-color="#37D385"/>
</linearGradient>
</defs>
</svg>
